<svg width="160" height="40" viewBox="0 0 160 40" fill="none" xmlns="http://www.w3.org/2000/svg">
<path d="M14.6832 22.2511C14.2983 21.846 13.9844 21.3498 13.7413 20.7624C13.5185 20.1548 13.3464 19.5572 13.2248 18.9699C13.083 18.3015 12.9818 17.5925 12.921 16.8431C12.8197 15.3848 12.9818 14.0581 13.4071 12.8631C13.8325 11.6681 14.4097 10.6452 15.1389 9.79451C15.8681 8.94382 16.6782 8.28554 17.5694 7.81969C18.4809 7.35383 19.362 7.1209 20.2127 7.1209C20.5975 7.1209 20.9013 7.21205 21.1241 7.39434C21.3672 7.57663 21.5495 7.79943 21.671 8.06274C21.7925 8.32605 21.8634 8.59949 21.8837 8.88306C21.9242 9.16662 21.9444 9.39955 21.9444 9.58184C21.9444 10.23 21.9242 10.868 21.8837 11.4959C21.8634 12.1238 21.8128 12.7922 21.7318 13.5011C21.671 14.21 21.5697 14.9696 21.4279 15.7798C21.2862 16.5899 21.1039 17.4913 20.8811 18.4837C20.7595 19.0306 20.5874 19.7294 20.3646 20.5801C20.1418 21.4308 19.8785 22.3726 19.5747 23.4056C20.4861 23.4259 21.2153 23.4664 21.7622 23.5272C22.3293 23.5677 22.6939 23.598 22.8559 23.6183C22.9977 23.6386 23.099 23.7094 23.1597 23.831C23.2407 23.9525 23.2002 24.1449 23.0382 24.4082C22.8762 24.6513 22.6432 24.7931 22.3394 24.8336C22.0558 24.8741 21.7723 24.8943 21.4887 24.8943C21.3267 24.8943 21.0229 24.8943 20.5773 24.8943C20.1519 24.8943 19.6455 24.9146 19.0582 24.9551C18.6328 26.2109 18.1467 27.4768 17.5998 28.7528C17.0732 30.0086 16.4858 31.1429 15.8377 32.1556C15.1895 33.1886 14.4806 34.019 13.7109 34.6469C12.9413 35.2951 12.1209 35.6192 11.25 35.6192C9.99421 35.6192 8.93084 35.3761 8.05989 34.89C7.2092 34.4241 6.52054 33.8671 5.99392 33.219C5.44705 32.5911 5.05208 31.9531 4.80903 31.3049C4.56597 30.677 4.44444 30.1909 4.44444 29.8466C4.44444 29.239 4.60648 28.6212 4.93055 27.9933C5.25463 27.3654 5.77112 26.778 6.48003 26.2311C7.16869 25.664 8.07002 25.1678 9.18403 24.7424C10.298 24.3171 11.6348 23.993 13.1944 23.7702C13.8426 23.6892 14.4604 23.6284 15.0477 23.5879C15.6351 23.5272 16.1921 23.4765 16.7187 23.436C17.1238 21.9169 17.5289 20.3674 17.934 18.7876C18.3594 17.2077 18.724 15.7494 19.0278 14.4126C19.1493 13.8657 19.2708 13.2783 19.3924 12.6504C19.5139 12.0023 19.605 11.3946 19.6658 10.8275C19.7468 10.2604 19.7873 9.78439 19.7873 9.39955C19.8076 9.01471 19.7671 8.80204 19.6658 8.76153C19.605 8.74127 19.4531 8.82229 19.2101 9.00458C18.967 9.16662 18.6834 9.40968 18.3594 9.73375C18.0353 10.0578 17.7112 10.4528 17.3872 10.9186C17.0833 11.3642 16.8301 11.8504 16.6276 12.377C16.263 13.41 15.9795 14.4227 15.7769 15.4152C15.6149 16.2659 15.5136 17.1672 15.4731 18.1192C15.4326 19.0711 15.5845 19.932 15.9288 20.7016C15.8883 20.9852 15.8275 21.2181 15.7465 21.4004C15.6858 21.5017 15.6351 21.5928 15.5946 21.6739C15.5339 21.7346 15.463 21.8055 15.3819 21.8865C15.3009 21.9473 15.1997 22.0182 15.0781 22.0992C14.9769 22.16 14.8452 22.2106 14.6832 22.2511ZM14.3186 30.7277C14.5414 30.2618 14.8148 29.5428 15.1389 28.5706C15.463 27.5983 15.8073 26.4742 16.1719 25.1982C15.1794 25.3197 14.1768 25.4918 13.1641 25.7147C12.1513 25.9172 11.2297 26.2008 10.3993 26.5653C9.58912 26.9097 8.92072 27.335 8.3941 27.8414C7.88773 28.3478 7.63455 28.9453 7.63455 29.6339C7.63455 30.3631 7.77633 31.0011 8.05989 31.548C8.36371 32.0949 8.71817 32.5506 9.12326 32.9152C9.54861 33.2798 9.97396 33.5532 10.3993 33.7355C10.8449 33.938 11.2196 34.0393 11.5234 34.0393C11.8273 34.0393 12.1108 33.9178 12.3741 33.6747C12.6577 33.4519 12.9109 33.1684 13.1337 32.824C13.3767 32.5 13.5894 32.1455 13.7717 31.7607C13.9742 31.3758 14.1565 31.0315 14.3186 30.7277Z" fill="white"/>
<path d="M33.1554 24.1348C33.0541 24.7627 32.9528 25.3602 32.8516 25.9273C32.7705 26.4945 32.7199 26.9502 32.6997 27.2945C32.6794 27.8009 32.7705 28.1655 32.9731 28.3883C33.1756 28.6111 33.3984 28.7225 33.6415 28.7225C33.9251 28.7225 34.2694 28.5807 34.6745 28.2971C35.0998 28.0136 35.5454 27.6591 36.0113 27.2337C36.4771 26.8084 36.943 26.3425 37.4089 25.8362C37.8747 25.3298 38.3001 24.8538 38.6849 24.4082C39.09 23.9424 39.4242 23.5373 39.6875 23.193C39.9711 22.8486 40.1635 22.6258 40.2648 22.5245C40.3863 22.403 40.5078 22.3321 40.6293 22.3119C40.7711 22.2916 40.8825 22.3119 40.9635 22.3726C41.0446 22.4334 41.0851 22.5448 41.0851 22.7068C41.0851 22.8689 41.0041 23.0714 40.842 23.3145C40.599 23.6993 40.285 24.155 39.9002 24.6817C39.5153 25.188 39.09 25.7147 38.6241 26.2615C38.1583 26.8084 37.662 27.3451 37.1354 27.8718C36.6291 28.3984 36.1126 28.8642 35.5859 29.2693C35.0796 29.6744 34.5833 29.9985 34.0972 30.2416C33.6314 30.5049 33.206 30.6365 32.8212 30.6365C32.5376 30.6365 32.2642 30.5555 32.0009 30.3935C31.7578 30.2314 31.535 30.0188 31.3325 29.7555C31.1299 29.4921 30.9679 29.1984 30.8464 28.8744C30.7451 28.5503 30.7046 28.2262 30.7248 27.9022C30.7451 27.7604 30.7755 27.5173 30.816 27.173C29.9653 28.125 29.1045 28.8845 28.2335 29.4516C27.3828 29.9985 26.5625 30.2719 25.7726 30.2719C25.489 30.2719 25.1852 30.2011 24.8611 30.0593C24.537 29.9175 24.2433 29.6846 23.98 29.3605C23.737 29.0364 23.5344 28.6111 23.3724 28.0844C23.2104 27.5578 23.1496 26.9198 23.1901 26.1704C23.2509 24.9956 23.4838 23.8816 23.8889 22.8284C24.294 21.7751 24.8003 20.8637 25.408 20.094C26.0359 19.3041 26.7347 18.6863 27.5043 18.2407C28.2943 17.7748 29.0842 17.5419 29.8741 17.5419C30.2185 17.5419 30.5324 17.6331 30.816 17.8153C31.0995 17.9774 31.3426 18.2002 31.5451 18.4837C31.7477 18.7471 31.9097 19.0408 32.0312 19.3648C32.173 19.6889 32.2743 19.9927 32.3351 20.2763C32.4769 19.6889 32.6085 19.1116 32.73 18.5445C32.8516 17.9774 32.9731 17.4406 33.0946 16.9343C33.2972 16.1848 33.5098 15.3747 33.7326 14.5037C33.9352 13.7543 34.1681 12.8935 34.4314 11.9212C34.6947 10.949 34.9884 9.92617 35.3125 8.85267C35.515 8.69064 35.7075 8.56911 35.8898 8.48809C36.072 8.40707 36.2442 8.34631 36.4062 8.3058C36.5885 8.24503 36.7607 8.21465 36.9227 8.21465C37.1253 8.21465 37.3076 8.24503 37.4696 8.3058C37.6317 8.34631 37.7633 8.47796 37.8646 8.70076C37.9861 8.90331 38.0671 9.21726 38.1076 9.6426C38.1481 10.068 38.1481 10.6452 38.1076 11.3744C38.0671 12.2656 37.9051 13.2378 37.6215 14.291C37.3582 15.3443 37.0038 16.438 36.5582 17.5723C36.1126 18.6863 35.5961 19.8104 35.0087 20.9447C34.4416 22.0587 33.8238 23.1221 33.1554 24.1348ZM31.3628 24.5298C31.4439 24.1449 31.5148 23.7601 31.5755 23.3752C31.6565 22.9904 31.7477 22.5954 31.849 22.1903C31.8084 22.2106 31.7679 22.2309 31.7274 22.2511C31.7072 22.2714 31.6768 22.2916 31.6363 22.3119C31.4135 22.4131 31.2616 22.4131 31.1806 22.3119C31.0995 22.1903 31.059 22.0081 31.059 21.765C31.059 21.6435 31.0489 21.4308 31.0286 21.127C31.0084 20.8029 30.9476 20.4788 30.8464 20.1548C30.7653 19.8104 30.6337 19.5167 30.4514 19.2737C30.2691 19.0104 30.0159 18.8787 29.6918 18.8787C29.226 18.8787 28.75 19.1218 28.2639 19.6079C27.7778 20.0737 27.322 20.651 26.8967 21.3397C26.4714 22.0081 26.1169 22.7271 25.8333 23.4968C25.5498 24.2664 25.3877 24.9551 25.3472 25.5627C25.3067 26.535 25.4282 27.2337 25.7118 27.6591C25.9954 28.0844 26.3802 28.2971 26.8663 28.2971C27.2309 28.2971 27.6259 28.1553 28.0512 27.8718C28.4968 27.5882 28.9222 27.2439 29.3273 26.8388C29.7526 26.4337 30.1374 26.0185 30.4818 25.5931C30.8464 25.1678 31.14 24.8133 31.3628 24.5298Z" fill="white"/>
<path d="M52.296 23.6183C51.6884 24.5095 50.9997 25.3805 50.23 26.2311C49.4604 27.0616 48.64 27.811 47.7691 28.4794C46.9184 29.1276 46.0373 29.6542 45.1259 30.0593C44.2347 30.4644 43.3637 30.6669 42.513 30.6669C42.0674 30.6669 41.5813 30.5555 41.0547 30.3327C40.5483 30.1302 40.0825 29.8061 39.6571 29.3605C39.2318 28.9149 38.8874 28.3376 38.6241 27.6287C38.3811 26.9198 38.3102 26.059 38.4115 25.0462C38.4925 24.2158 38.7457 23.3449 39.171 22.4334C39.6166 21.5017 40.1534 20.651 40.7812 19.8813C41.4294 19.1116 42.1484 18.4736 42.9384 17.9673C43.7486 17.4609 44.5587 17.2077 45.3689 17.2077C46.1386 17.2077 46.6956 17.4001 47.0399 17.785C47.3843 18.1698 47.5362 18.6458 47.4957 19.2129C47.4349 19.8408 47.2526 20.4181 46.9488 20.9447C46.6652 21.4713 46.3209 21.9473 45.9158 22.3726C45.5107 22.798 45.0752 23.1828 44.6094 23.5272C44.1638 23.8715 43.7384 24.1854 43.3333 24.469C42.8877 24.7728 42.4624 25.0665 42.0573 25.3501C41.6522 25.6134 41.2977 25.8564 40.9939 26.0792C41.0142 26.5856 41.1053 27.0109 41.2674 27.3553C41.4294 27.6996 41.6319 27.9832 41.875 28.206C42.1181 28.4085 42.3915 28.5604 42.6953 28.6617C43.0194 28.7427 43.3435 28.7832 43.6675 28.7832C44.3562 28.7832 45.0752 28.5706 45.8247 28.1452C46.5741 27.6996 47.3032 27.173 48.0122 26.5653C48.7413 25.9375 49.4097 25.2893 50.0174 24.6209C50.6453 23.9525 51.1617 23.3752 51.5668 22.8891C51.7086 22.7271 51.8504 22.6359 51.9922 22.6157C52.1542 22.5752 52.2757 22.5954 52.3568 22.6765C52.458 22.7372 52.5087 22.8587 52.5087 23.041C52.5087 23.2031 52.4378 23.3955 52.296 23.6183ZM44.5182 18.9395C44.2752 18.9395 43.9815 19.061 43.6372 19.3041C43.3131 19.5471 42.989 19.9016 42.6649 20.3674C42.3409 20.813 42.037 21.37 41.7535 22.0384C41.4699 22.6866 41.2572 23.436 41.1155 24.2867C41.3585 24.1044 41.6218 23.9221 41.9054 23.7398C42.1889 23.5373 42.4725 23.3246 42.7561 23.1018C43.627 22.4334 44.2347 21.846 44.579 21.3397C44.9233 20.8333 45.1157 20.3978 45.1562 20.0332C45.1968 19.6484 45.1562 19.375 45.0347 19.2129C44.9132 19.0306 44.741 18.9395 44.5182 18.9395Z" fill="white"/>
<path d="M65.6944 23.8917C65.4109 24.2968 65.0463 24.8032 64.6007 25.4108C64.1551 25.9982 63.6892 26.5957 63.2031 27.2034C62.7373 27.7908 62.2714 28.3376 61.8056 28.844C61.36 29.3301 60.9852 29.6744 60.6814 29.877C60.4789 29.9985 60.2459 30.0998 59.9826 30.1808C59.7193 30.2618 59.4459 30.3125 59.1623 30.3327C58.899 30.353 58.6458 30.3327 58.4028 30.2719C58.1597 30.2314 57.9471 30.1504 57.7648 30.0289C57.5825 29.8871 57.4306 29.6846 57.309 29.4212C57.2078 29.1984 57.1065 28.9048 57.0052 28.5402C56.9242 28.1756 56.8938 27.7199 56.9141 27.173C56.428 27.9832 55.8912 28.6111 55.3038 29.0567C54.7164 29.482 54.1594 29.796 53.6328 29.9985C53.0252 30.2213 52.4175 30.353 51.8099 30.3935C51.5263 30.3935 51.2225 30.2922 50.8984 30.0897C50.5744 29.9074 50.3009 29.6137 50.0781 29.2086C49.8553 28.7832 49.7135 28.2465 49.6528 27.5983C49.592 26.9299 49.673 26.14 49.8958 25.2285C50.1794 23.993 50.625 22.8689 51.2326 21.8561C51.8605 20.8434 52.5391 19.9826 53.2682 19.2737C53.9974 18.5445 54.7164 17.9976 55.4253 17.6331C56.1343 17.2685 56.7216 17.1064 57.1875 17.1469C57.7344 17.2482 58.18 17.4103 58.5243 17.6331C58.8079 17.8356 58.9902 18.1394 59.0712 18.5445C59.1725 18.9294 59.0104 19.4458 58.5851 20.094C58.8686 20.0332 59.1016 19.9927 59.2839 19.9725C59.4864 19.9522 59.6383 19.9421 59.7396 19.9421C59.8611 19.9421 59.9421 19.9522 59.9826 19.9725C60.0029 20.013 60.013 20.1041 60.013 20.2459C60.013 20.3674 59.9826 20.6004 59.9219 20.9447C59.8611 21.289 59.77 21.7549 59.6484 22.3423C59.5269 22.9296 59.3649 23.6892 59.1623 24.6209C59.1218 24.8032 59.0813 24.9754 59.0408 25.1374C59.0205 25.2792 58.9902 25.4311 58.9497 25.5931C58.9294 25.7349 58.899 25.9071 58.8585 26.1096C58.818 26.3122 58.7674 26.5653 58.7066 26.8692C58.6863 27.0515 58.6762 27.254 58.6762 27.4768C58.6965 27.6794 58.737 27.8718 58.7977 28.0541C58.8585 28.2364 58.9497 28.3883 59.0712 28.5098C59.213 28.6111 59.4054 28.6617 59.6484 28.6617C59.851 28.6617 60.1143 28.5402 60.4384 28.2971C60.7624 28.0338 61.1068 27.7097 61.4714 27.3249C61.8359 26.9198 62.2106 26.4843 62.5955 26.0185C63.0006 25.5324 63.3753 25.0665 63.7196 24.6209C64.0639 24.1753 64.3678 23.7803 64.6311 23.436C64.9146 23.0917 65.1172 22.8385 65.2387 22.6765C65.4008 22.4942 65.5628 22.3929 65.7248 22.3726C65.8869 22.3321 66.0084 22.3726 66.0894 22.4942C66.1704 22.6157 66.1806 22.798 66.1198 23.041C66.0793 23.2841 65.9375 23.5677 65.6944 23.8917ZM56.7925 25.2285C56.8938 24.8234 57.0153 24.3475 57.1571 23.8006C57.2989 23.2537 57.4204 22.7271 57.5217 22.2207C57.623 21.7144 57.6939 21.2991 57.7344 20.9751C57.7951 20.6307 57.785 20.4687 57.704 20.489C57.6027 20.5092 57.4913 20.5396 57.3698 20.5801C57.2685 20.6206 57.1369 20.651 56.9748 20.6712C56.8128 20.6915 56.6508 20.7219 56.4887 20.7624C56.6508 20.4383 56.7419 20.175 56.7622 19.9725C56.8027 19.7497 56.8128 19.5775 56.7925 19.456C56.7723 19.3142 56.7318 19.2028 56.671 19.1218C56.4482 18.9395 56.0532 19.0914 55.4861 19.5775C54.9392 20.0434 54.3012 20.9143 53.572 22.1903C53.2682 22.717 53.0252 23.2841 52.8429 23.8917C52.6606 24.4791 52.5289 25.0361 52.4479 25.5627C52.3872 26.0894 52.377 26.5552 52.4175 26.9603C52.458 27.3451 52.5391 27.5983 52.6606 27.7199C52.8834 27.9427 53.1366 28.0541 53.4201 28.0541C53.7037 28.0338 53.9873 27.9528 54.2708 27.811C54.5747 27.649 54.8683 27.4464 55.1519 27.2034C55.4557 26.9603 55.719 26.7071 55.9418 26.4438C56.1849 26.1805 56.3773 25.9375 56.5191 25.7147C56.6811 25.4918 56.7723 25.3298 56.7925 25.2285Z" fill="white"/>
<path d="M63.2031 29.4516C64.0943 25.7045 64.8032 22.6967 65.3299 20.4282C65.8767 18.1597 66.292 16.4279 66.5755 15.2329C66.8996 13.8151 67.1224 12.8327 67.2439 12.2858C67.3047 11.901 67.3553 11.5263 67.3958 11.1617C67.4363 10.8376 67.4566 10.5034 67.4566 10.1591C67.4566 9.81477 67.4262 9.50082 67.3655 9.21726C67.5275 9.11598 67.6997 9.03497 67.8819 8.9742C68.0845 8.91344 68.2769 8.8628 68.4592 8.82229C68.682 8.76153 68.9048 8.71089 69.1276 8.67038C69.3504 8.62987 69.553 8.60962 69.7352 8.60962C69.8973 8.60962 70.0492 8.62987 70.191 8.67038C70.3328 8.69064 70.4239 8.7514 70.4644 8.85267C70.5859 8.95395 70.6366 9.15649 70.6163 9.46031C70.6163 9.76413 70.5961 10.0781 70.5556 10.4022C70.4745 10.787 70.3834 11.2022 70.2821 11.6478C70.0391 12.5188 69.7049 13.7745 69.2795 15.4152C68.9149 16.8127 68.4187 18.7167 67.7908 21.127C67.1832 23.5373 66.4135 26.5755 65.4818 30.2416C65.3805 30.3428 65.259 30.4137 65.1172 30.4542C64.9754 30.4947 64.8438 30.515 64.7222 30.515C64.5804 30.515 64.4285 30.5049 64.2665 30.4846C64.1247 30.4441 63.9829 30.3833 63.8411 30.3023C63.7196 30.2213 63.5981 30.1099 63.4766 29.9681C63.355 29.8466 63.2639 29.6744 63.2031 29.4516Z" fill="white"/>
<path d="M81.0595 30.2933C78.8787 30.2933 77.0654 29.8904 75.6195 29.0844C74.1972 28.2785 73.1187 27.1526 72.3839 25.7067C71.6491 24.2607 71.2461 22.5778 71.175 20.6578C71.1513 19.6859 71.1395 18.643 71.1395 17.5289C71.1395 16.4148 71.1513 15.3482 71.175 14.3289C71.2461 12.4089 71.6491 10.7259 72.3839 9.28C73.1187 7.83408 74.1972 6.70815 75.6195 5.90222C77.0654 5.0963 78.8787 4.69333 81.0595 4.69333C82.695 4.69333 84.1291 4.91852 85.3617 5.36889C86.5943 5.81926 87.6135 6.4237 88.4195 7.18222C89.2491 7.94074 89.8772 8.79408 90.3039 9.74222C90.7306 10.6667 90.9676 11.6267 91.015 12.6222C91.0387 12.8356 90.9676 13.0133 90.8017 13.1556C90.6595 13.2978 90.4817 13.3689 90.2684 13.3689H88.3128C88.0995 13.3689 87.9098 13.3096 87.7439 13.1911C87.6017 13.0726 87.495 12.8593 87.4239 12.5511C87.0209 10.7022 86.2624 9.43408 85.1484 8.74667C84.058 8.05926 82.6832 7.71556 81.0239 7.71556C79.1276 7.71556 77.6224 8.26074 76.5084 9.35111C75.3943 10.4178 74.7898 12.1363 74.695 14.5067C74.6239 16.4504 74.6239 18.4415 74.695 20.48C74.7898 22.8504 75.3943 24.5807 76.5084 25.6711C77.6224 26.7378 79.1276 27.2711 81.0239 27.2711C82.6832 27.2711 84.058 26.9274 85.1484 26.24C86.2624 25.5526 87.0209 24.2844 87.4239 22.4356C87.495 22.1274 87.6017 21.9141 87.7439 21.7956C87.9098 21.677 88.0995 21.6178 88.3128 21.6178H90.2684C90.4817 21.6178 90.6595 21.6889 90.8017 21.8311C90.9676 21.9733 91.0387 22.1511 91.015 22.3644C90.9676 23.36 90.7306 24.3319 90.3039 25.28C89.8772 26.2044 89.2491 27.0459 88.4195 27.8044C87.6135 28.563 86.5943 29.1674 85.3617 29.6178C84.1291 30.0682 82.695 30.2933 81.0595 30.2933Z" fill="#2B5F2A"/>
<path d="M96.1711 29.9378C95.9341 29.9378 95.7326 29.8667 95.5667 29.7244C95.4245 29.5585 95.3534 29.357 95.3534 29.12V5.51111C95.3534 5.27408 95.4245 5.08445 95.5667 4.94222C95.7326 4.7763 95.9341 4.69333 96.1711 4.69333H97.9489C98.2097 4.69333 98.4111 4.7763 98.5534 4.94222C98.6956 5.08445 98.7667 5.27408 98.7667 5.51111V13.7956C99.4067 12.9896 100.189 12.3378 101.113 11.84C102.038 11.3422 103.211 11.0933 104.633 11.0933C106.174 11.0933 107.478 11.437 108.544 12.1244C109.635 12.7881 110.453 13.7244 110.998 14.9333C111.567 16.1185 111.851 17.5052 111.851 19.0933V29.12C111.851 29.357 111.78 29.5585 111.638 29.7244C111.496 29.8667 111.294 29.9378 111.033 29.9378H109.256C109.019 29.9378 108.817 29.8667 108.651 29.7244C108.509 29.5585 108.438 29.357 108.438 29.12V19.2711C108.438 17.6119 108.035 16.32 107.229 15.3956C106.423 14.4474 105.238 13.9733 103.673 13.9733C102.204 13.9733 101.019 14.4474 100.118 15.3956C99.2171 16.32 98.7667 17.6119 98.7667 19.2711V29.12C98.7667 29.357 98.6956 29.5585 98.5534 29.7244C98.4111 29.8667 98.2097 29.9378 97.9489 29.9378H96.1711Z" fill="#2B5F2A"/>
<path d="M122.14 30.2933C120.955 30.2933 119.876 30.0563 118.904 29.5822C117.933 29.1082 117.15 28.4682 116.558 27.6622C115.965 26.8563 115.669 25.9437 115.669 24.9244C115.669 23.2889 116.333 21.9852 117.66 21.0133C118.987 20.0415 120.718 19.4015 122.851 19.0933L128.149 18.3467V17.3156C128.149 16.1778 127.817 15.2889 127.153 14.6489C126.513 14.0089 125.459 13.6889 123.989 13.6889C122.922 13.6889 122.057 13.9022 121.393 14.3289C120.753 14.7556 120.303 15.3007 120.042 15.9644C119.9 16.32 119.651 16.4978 119.296 16.4978H117.696C117.435 16.4978 117.233 16.4267 117.091 16.2844C116.973 16.1185 116.913 15.9289 116.913 15.7156C116.913 15.36 117.044 14.9215 117.304 14.4C117.589 13.8785 118.016 13.3689 118.584 12.8711C119.153 12.3733 119.876 11.9585 120.753 11.6267C121.654 11.2711 122.744 11.0933 124.024 11.0933C125.447 11.0933 126.644 11.283 127.616 11.6622C128.587 12.0178 129.346 12.5037 129.891 13.12C130.46 13.7363 130.863 14.4356 131.1 15.2178C131.361 16 131.491 16.7941 131.491 17.6V29.12C131.491 29.357 131.408 29.5585 131.242 29.7244C131.1 29.8667 130.91 29.9378 130.673 29.9378H129.038C128.777 29.9378 128.576 29.8667 128.433 29.7244C128.291 29.5585 128.22 29.357 128.22 29.12V27.5911C127.912 28.0178 127.497 28.4444 126.976 28.8711C126.454 29.2741 125.802 29.6178 125.02 29.9022C124.238 30.163 123.278 30.2933 122.14 30.2933ZM122.887 27.6267C123.859 27.6267 124.747 27.4252 125.553 27.0222C126.359 26.5956 126.987 25.9437 127.438 25.0667C127.912 24.1896 128.149 23.0874 128.149 21.76V20.7644L124.024 21.3689C122.342 21.6059 121.073 22.0089 120.22 22.5778C119.367 23.123 118.94 23.8222 118.94 24.6756C118.94 25.3393 119.13 25.8963 119.509 26.3467C119.912 26.7733 120.41 27.0933 121.002 27.3067C121.619 27.52 122.247 27.6267 122.887 27.6267Z" fill="#2B5F2A"/>
<path d="M137.42 29.9378C137.183 29.9378 136.982 29.8667 136.816 29.7244C136.674 29.5585 136.603 29.357 136.603 29.12V12.2667C136.603 12.0296 136.674 11.84 136.816 11.6978C136.982 11.5319 137.183 11.4489 137.42 11.4489H139.127C139.364 11.4489 139.554 11.5319 139.696 11.6978C139.838 11.84 139.909 12.0296 139.909 12.2667V29.12C139.909 29.357 139.838 29.5585 139.696 29.7244C139.554 29.8667 139.364 29.9378 139.127 29.9378H137.42ZM137.136 8C136.899 8 136.697 7.92889 136.531 7.78667C136.389 7.62074 136.318 7.41926 136.318 7.18222V5.26222C136.318 5.02519 136.389 4.83556 136.531 4.69333C136.697 4.52741 136.899 4.44445 137.136 4.44445H139.376C139.613 4.44445 139.803 4.52741 139.945 4.69333C140.111 4.83556 140.194 5.02519 140.194 5.26222V7.18222C140.194 7.41926 140.111 7.62074 139.945 7.78667C139.803 7.92889 139.613 8 139.376 8H137.136Z" fill="#2B5F2A"/>
<path d="M146.379 29.9378C146.142 29.9378 145.94 29.8667 145.774 29.7244C145.632 29.5585 145.561 29.357 145.561 29.12V12.3022C145.561 12.0652 145.632 11.8637 145.774 11.6978C145.94 11.5319 146.142 11.4489 146.379 11.4489H148.014C148.251 11.4489 148.453 11.5319 148.619 11.6978C148.785 11.8637 148.868 12.0652 148.868 12.3022V13.8667C149.342 13.0607 149.993 12.4563 150.823 12.0533C151.653 11.6504 152.648 11.4489 153.81 11.4489H155.232C155.469 11.4489 155.659 11.5319 155.801 11.6978C155.943 11.84 156.014 12.0296 156.014 12.2667V13.7244C156.014 13.9615 155.943 14.1511 155.801 14.2933C155.659 14.4356 155.469 14.5067 155.232 14.5067H153.099C151.819 14.5067 150.811 14.8859 150.076 15.6444C149.342 16.3793 148.974 17.3867 148.974 18.6667V29.12C148.974 29.357 148.891 29.5585 148.725 29.7244C148.559 29.8667 148.358 29.9378 148.121 29.9378H146.379Z" fill="#2B5F2A"/>
</svg>
