<svg width="60" height="60" viewBox="0 0 60 60" fill="none" xmlns="http://www.w3.org/2000/svg">
<path d="M13.5 49C11.625 47.125 10.1562 44.9583 9.09375 42.5C8.03125 40.0417 7.5 37.5 7.5 34.875C7.5 32.25 8 29.6562 9 27.0937C10 24.5312 11.625 22.125 13.875 19.875C15.3333 18.4167 17.1354 17.1667 19.2813 16.125C21.4271 15.0833 23.9688 14.2604 26.9063 13.6562C29.8438 13.0521 33.1979 12.6875 36.9688 12.5625C40.7396 12.4375 44.9583 12.5833 49.625 13C49.9583 17.4167 50.0625 21.4792 49.9375 25.1875C49.8125 28.8958 49.4688 32.2396 48.9062 35.2187C48.3437 38.1979 47.5521 40.8021 46.5313 43.0312C45.5104 45.2604 44.25 47.125 42.75 48.625C40.5417 50.8333 38.1979 52.4479 35.7188 53.4687C33.2396 54.4896 30.7083 55 28.125 55C25.4167 55 22.7708 54.4687 20.1875 53.4062C17.6042 52.3437 15.375 50.875 13.5 49ZM20.5 48C21.7083 48.7083 22.9479 49.2187 24.2188 49.5312C25.4896 49.8437 26.7917 50 28.125 50C30.0417 50 31.9375 49.6146 33.8125 48.8437C35.6875 48.0729 37.4792 46.8333 39.1875 45.125C39.9375 44.375 40.6979 43.3229 41.4688 41.9687C42.2396 40.6146 42.9062 38.8437 43.4687 36.6562C44.0312 34.4687 44.4583 31.8229 44.75 28.7187C45.0417 25.6146 45.0833 21.9167 44.875 17.625C42.8333 17.5417 40.5312 17.5104 37.9688 17.5312C35.4063 17.5521 32.8542 17.75 30.3125 18.125C27.7708 18.5 25.3542 19.1042 23.0625 19.9375C20.7708 20.7708 18.8958 21.9167 17.4375 23.375C15.5625 25.25 14.2708 27.1042 13.5625 28.9375C12.8542 30.7708 12.5 32.5417 12.5 34.25C12.5 36.7083 12.9688 38.8646 13.9062 40.7187C14.8438 42.5729 15.6667 43.875 16.375 44.625C18.125 41.2917 20.4375 38.0937 23.3125 35.0312C26.1875 31.9687 29.5417 29.4583 33.375 27.5C30.375 30.125 27.7604 33.0937 25.5313 36.4062C23.3021 39.7187 21.625 43.5833 20.5 48Z" fill="#74E472"/>
</svg>
