<svg width="60" height="60" viewBox="0 0 60 60" fill="none" xmlns="http://www.w3.org/2000/svg">
<path d="M27.375 31.75L23.75 28.1875C23.2917 27.7292 22.7188 27.5 22.0313 27.5C21.3438 27.5 20.75 27.75 20.25 28.25C19.7917 28.7084 19.5625 29.2917 19.5625 30C19.5625 30.7084 19.7917 31.2917 20.25 31.75L25.625 37.125C26.125 37.625 26.7083 37.875 27.375 37.875C28.0417 37.875 28.625 37.625 29.125 37.125L39.75 26.5C40.25 26 40.4896 25.4167 40.4688 24.75C40.4479 24.0834 40.2083 23.5 39.75 23C39.25 22.5 38.6563 22.2396 37.9688 22.2188C37.2813 22.1979 36.6875 22.4375 36.1875 22.9375L27.375 31.75ZM20.375 54.375L16.75 48.25L9.875 46.75C9.25 46.625 8.75 46.3021 8.375 45.7813C8 45.2604 7.85417 44.6875 7.9375 44.0625L8.625 37L3.9375 31.625C3.52083 31.1667 3.3125 30.625 3.3125 30C3.3125 29.375 3.52083 28.8334 3.9375 28.375L8.625 23L7.9375 15.9375C7.85417 15.3125 8 14.7396 8.375 14.2188C8.75 13.6979 9.25 13.375 9.875 13.25L16.75 11.75L20.375 5.62502C20.7083 5.08336 21.1667 4.71877 21.75 4.53127C22.3333 4.34377 22.9167 4.37502 23.5 4.62502L30 7.37502L36.5 4.62502C37.0833 4.37502 37.6667 4.34377 38.25 4.53127C38.8333 4.71877 39.2917 5.08336 39.625 5.62502L43.25 11.75L50.125 13.25C50.75 13.375 51.25 13.6979 51.625 14.2188C52 14.7396 52.1458 15.3125 52.0625 15.9375L51.375 23L56.0625 28.375C56.4792 28.8334 56.6875 29.375 56.6875 30C56.6875 30.625 56.4792 31.1667 56.0625 31.625L51.375 37L52.0625 44.0625C52.1458 44.6875 52 45.2604 51.625 45.7813C51.25 46.3021 50.75 46.625 50.125 46.75L43.25 48.25L39.625 54.375C39.2917 54.9167 38.8333 55.2813 38.25 55.4688C37.6667 55.6563 37.0833 55.625 36.5 55.375L30 52.625L23.5 55.375C22.9167 55.625 22.3333 55.6563 21.75 55.4688C21.1667 55.2813 20.7083 54.9167 20.375 54.375ZM23.625 49.875L30 47.125L36.5 49.875L40 43.875L46.875 42.25L46.25 35.25L50.875 30L46.25 24.625L46.875 17.625L40 16.125L36.375 10.125L30 12.875L23.5 10.125L20 16.125L13.125 17.625L13.75 24.625L9.125 30L13.75 35.25L13.125 42.375L20 43.875L23.625 49.875Z" fill="#74E472"/>
</svg>
