<svg width="60" height="60" viewBox="0 0 60 60" fill="none" xmlns="http://www.w3.org/2000/svg">
<path d="M30 55C26.5833 55 23.3542 54.3438 20.3125 53.0313C17.2708 51.7188 14.6146 49.9271 12.3438 47.6563C10.0729 45.3854 8.28125 42.7292 6.96875 39.6875C5.65625 36.6459 5 33.4167 5 30C5 26.5417 5.67708 23.2917 7.03125 20.25C8.38542 17.2084 10.2188 14.5625 12.5312 12.3125C14.8438 10.0625 17.5417 8.28128 20.625 6.96878C23.7083 5.65628 27 5.00003 30.5 5.00003C33.8333 5.00003 36.9792 5.57295 39.9375 6.71878C42.8958 7.86461 45.4896 9.44795 47.7188 11.4688C49.9479 13.4896 51.7188 15.8854 53.0312 18.6563C54.3438 21.4271 55 24.4167 55 27.625C55 32.4167 53.5417 36.0938 50.625 38.6563C47.7083 41.2188 44.1667 42.5 40 42.5H35.375C35 42.5 34.7396 42.6042 34.5938 42.8125C34.4479 43.0209 34.375 43.25 34.375 43.5C34.375 44 34.6875 44.7188 35.3125 45.6563C35.9375 46.5938 36.25 47.6667 36.25 48.875C36.25 50.9584 35.6771 52.5 34.5312 53.5C33.3854 54.5 31.875 55 30 55ZM16.25 32.5C17.3333 32.5 18.2292 32.1459 18.9375 31.4375C19.6458 30.7292 20 29.8334 20 28.75C20 27.6667 19.6458 26.7709 18.9375 26.0625C18.2292 25.3542 17.3333 25 16.25 25C15.1667 25 14.2708 25.3542 13.5625 26.0625C12.8542 26.7709 12.5 27.6667 12.5 28.75C12.5 29.8334 12.8542 30.7292 13.5625 31.4375C14.2708 32.1459 15.1667 32.5 16.25 32.5ZM23.75 22.5C24.8333 22.5 25.7292 22.1459 26.4375 21.4375C27.1458 20.7292 27.5 19.8334 27.5 18.75C27.5 17.6667 27.1458 16.7709 26.4375 16.0625C25.7292 15.3542 24.8333 15 23.75 15C22.6667 15 21.7708 15.3542 21.0625 16.0625C20.3542 16.7709 20 17.6667 20 18.75C20 19.8334 20.3542 20.7292 21.0625 21.4375C21.7708 22.1459 22.6667 22.5 23.75 22.5ZM36.25 22.5C37.3333 22.5 38.2292 22.1459 38.9375 21.4375C39.6458 20.7292 40 19.8334 40 18.75C40 17.6667 39.6458 16.7709 38.9375 16.0625C38.2292 15.3542 37.3333 15 36.25 15C35.1667 15 34.2708 15.3542 33.5625 16.0625C32.8542 16.7709 32.5 17.6667 32.5 18.75C32.5 19.8334 32.8542 20.7292 33.5625 21.4375C34.2708 22.1459 35.1667 22.5 36.25 22.5ZM43.75 32.5C44.8333 32.5 45.7292 32.1459 46.4375 31.4375C47.1458 30.7292 47.5 29.8334 47.5 28.75C47.5 27.6667 47.1458 26.7709 46.4375 26.0625C45.7292 25.3542 44.8333 25 43.75 25C42.6667 25 41.7708 25.3542 41.0625 26.0625C40.3542 26.7709 40 27.6667 40 28.75C40 29.8334 40.3542 30.7292 41.0625 31.4375C41.7708 32.1459 42.6667 32.5 43.75 32.5ZM30 50C30.375 50 30.6771 49.8959 30.9062 49.6875C31.1354 49.4792 31.25 49.2084 31.25 48.875C31.25 48.2917 30.9375 47.6042 30.3125 46.8125C29.6875 46.0209 29.375 44.8334 29.375 43.25C29.375 41.5 29.9792 40.1042 31.1875 39.0625C32.3958 38.0209 33.875 37.5 35.625 37.5H40C42.75 37.5 45.1042 36.6979 47.0625 35.0938C49.0208 33.4896 50 31 50 27.625C50 22.5834 48.0729 18.3854 44.2188 15.0313C40.3646 11.6771 35.7917 10 30.5 10C24.8333 10 20 11.9375 16 15.8125C12 19.6875 10 24.4167 10 30C10 35.5417 11.9479 40.2604 15.8438 44.1563C19.7396 48.0521 24.4583 50 30 50Z" fill="#74E472"/>
</svg>
