<svg width="60" height="60" viewBox="0 0 60 60" fill="none" xmlns="http://www.w3.org/2000/svg">
<path d="M32.5 29V20C32.5 19.2916 32.2604 18.6979 31.7812 18.2187C31.3021 17.7396 30.7083 17.5 30 17.5C29.2917 17.5 28.6979 17.7396 28.2188 18.2187C27.7396 18.6979 27.5 19.2916 27.5 20V29.9375C27.5 30.2708 27.5625 30.5937 27.6875 30.9062C27.8125 31.2187 28 31.5 28.25 31.75L36.5 40C36.9583 40.4583 37.5417 40.6875 38.25 40.6875C38.9583 40.6875 39.5417 40.4583 40 40C40.4583 39.5416 40.6875 38.9583 40.6875 38.25C40.6875 37.5416 40.4583 36.9583 40 36.5L32.5 29ZM30 55C26.5417 55 23.2917 54.3437 20.25 53.0312C17.2083 51.7187 14.5625 49.9375 12.3125 47.6875C10.0625 45.4375 8.28125 42.7916 6.96875 39.75C5.65625 36.7083 5 33.4583 5 30C5 26.5416 5.65625 23.2916 6.96875 20.25C8.28125 17.2083 10.0625 14.5625 12.3125 12.3125C14.5625 10.0625 17.2083 8.28122 20.25 6.96872C23.2917 5.65622 26.5417 4.99997 30 4.99997C33.4583 4.99997 36.7083 5.65622 39.75 6.96872C42.7917 8.28122 45.4375 10.0625 47.6875 12.3125C49.9375 14.5625 51.7188 17.2083 53.0312 20.25C54.3438 23.2916 55 26.5416 55 30C55 33.4583 54.3438 36.7083 53.0312 39.75C51.7188 42.7916 49.9375 45.4375 47.6875 47.6875C45.4375 49.9375 42.7917 51.7187 39.75 53.0312C36.7083 54.3437 33.4583 55 30 55ZM30 50C35.5417 50 40.2604 48.0521 44.1562 44.1562C48.0521 40.2604 50 35.5416 50 30C50 24.4583 48.0521 19.7396 44.1562 15.8437C40.2604 11.9479 35.5417 9.99997 30 9.99997C24.4583 9.99997 19.7396 11.9479 15.8438 15.8437C11.9479 19.7396 10 24.4583 10 30C10 35.5416 11.9479 40.2604 15.8438 44.1562C19.7396 48.0521 24.4583 50 30 50Z" fill="#74E472"/>
</svg>
